PathFileType	3	(X/Y/Z)	RCH0000002 BBF 03.c3d
DataRate	CameraRate	NumFrames	NumMarkers	Units	OrigDataRate	OrigDataStartFrame	OrigNumFrames
100.0	100.0	6	23	mm	100.0	308	376
Frame#	Time	T2			T10			LASI			LPSI			RPSI			LANK			LMED			LTOE			RPAT			RANK			RMED			RHEE			RTOE			MAN			LPAT			RKNE			LKNE			RASI			LHEE			RTHI			LTHI			RTIB			LTIB			
		X1	Y1	Z1	X2	Y2	Z2	X3	Y3	Z3	X4	Y4	Z4	X5	Y5	Z5	X6	Y6	Z6	X7	Y7	Z7	X8	Y8	Z8	X9	Y9	Z9	X10	Y10	Z10	X11	Y11	Z11	X12	Y12	Z12	X13	Y13	Z13	X14	Y14	Z14	X15	Y15	Z15	X16	Y16	Z16	X17	Y17	Z17	X18	Y18	Z18	X19	Y19	Z19	X20	Y20	Z20	X21	Y21	Z21	X22	Y22	Z22	X23	Y23	Z23	

308	3.070	-789.49522	10.67024	991.05105	-787.40155	7.60780	802.44644	-686.13994	65.35102	645.26379	-800.34412	29.81926	702.90724	-801.89006	-39.36483	719.22316	-690.05369	91.12764	124.86102	-673.72823	21.80143	133.78229	-636.78228	63.80042	112.81816	-753.35315	-59.89263	385.39605	-857.79272	-103.97313	86.27906	-873.25350	-38.70416	105.07514	-904.71384	-81.09402	123.29462	-817.83529	-61.54289	73.92074	-658.95958	11.96144	956.79437	-568.85655	35.52622	431.52846	-800.81569	-114.83290	358.93851	-606.62382	87.37767	378.59672	-696.73027	-108.79671	675.09831	-717.36461	44.60758	155.47679	-754.85926	-183.62610	461.33088	-669.24591	156.21251	487.66975	-829.19316	-178.45295	238.68320	-648.15283	151.21525	276.87330	
309	3.080	-781.35414	11.69288	990.19765	-779.75612	8.85410	801.35997	-676.50598	64.67549	644.21257	-791.61217	31.04855	701.33289	-794.04436	-38.05397	718.11346	-666.20899	92.32521	122.31598	-651.27417	22.72953	131.35304	-613.01715	64.34810	111.98769	-749.11148	-60.21912	384.78847	-857.19338	-103.82167	86.90896	-871.99887	-38.48540	105.89856	-903.55945	-80.67243	124.49898	-817.07370	-61.58879	74.05226	-650.83913	12.64991	955.34961	-557.58618	33.51701	432.82565	-797.19285	-115.06076	359.19952	-593.26496	86.16921	379.32453	-689.56334	-109.06441	674.95380	-695.45940	46.00480	151.51069	-750.28946	-183.76093	461.22585	-656.73114	155.38308	487.72095	-827.45061	-178.46283	239.10621	-629.70611	151.16029	276.15028	
310	3.090	-773.11820	12.86310	989.21742	-771.88816	10.12827	800.19223	-666.65519	63.96662	643.05914	-782.60316	32.27373	699.68072	-785.93311	-36.73518	716.91725	-643.16258	93.33589	119.45644	-629.74019	23.45467	128.54153	-590.18340	64.63168	110.71656	-744.49322	-60.52539	384.13966	-856.46615	-103.73743	87.58918	-870.61043	-38.34191	106.76933	-902.23440	-80.32989	125.79575	-816.21641	-61.67926	74.17389	-642.59689	13.41640	953.89199	-546.94884	31.22437	433.29719	-793.17765	-115.26659	359.44632	-580.63348	84.73798	379.39564	-682.14253	-109.32689	674.76291	-674.35716	47.27247	147.21762	-745.38979	-183.88902	461.11851	-644.36085	154.37545	487.37741	-825.40640	-178.48069	239.56947	-611.92253	150.90351	274.92810	
311	3.100	-764.77654	14.18769	988.12185	-763.76441	11.40884	798.95336	-656.57897	63.23631	641.81912	-773.30099	33.48269	697.96467	-777.53126	-35.42381	715.64073	-621.19944	94.09448	116.28624	-609.37773	23.92212	125.35976	-568.55045	64.60210	108.97792	-739.42456	-60.82565	383.43726	-855.57107	-103.74055	88.32326	-869.05083	-38.29543	107.69512	-900.69075	-80.09316	127.19689	-815.23472	-61.82828	74.27891	-634.22207	14.26454	952.45112	-536.91768	28.67872	432.90848	-788.70400	-115.44898	359.66194	-568.73163	83.10324	378.76857	-674.43604	-109.58944	674.51438	-654.30456	48.34774	142.64601	-740.11844	-184.01377	461.00140	-632.14899	153.19725	486.60663	-822.99096	-178.51800	240.06845	-594.93378	150.41784	273.18720	
312	3.110	-756.31964	15.66785	986.91926	-755.35286	12.67231	797.65002	-646.27535	62.49956	640.50837	-763.69627	34.66047	696.20259	-768.81829	-34.13955	714.29094	-600.60801	94.55454	112.81881	-590.43431	24.09762	121.83389	-548.38268	64.23564	106.76316	-733.83485	-61.13055	382.66131	-854.46688	-103.84665	89.11063	-867.28328	-38.36272	108.67906	-898.87926	-79.98470	128.70919	-814.10145	-62.04547	74.35811	-625.70554	15.19514	951.05312	-527.45738	25.92194	431.65538	-783.70892	-115.60371	359.82018	-557.54781	81.29685	377.43031	-666.41589	-109.85628	674.19010	-635.54974	49.18144	137.85455	-734.43727	-184.13614	460.85818	-620.10705	151.86569	485.39365	-820.13338	-178.58229	240.59146	-578.87235	149.69106	270.92839	
313	3.120	-747.73979	17.29874	985.61587	-746.62465	13.89251	796.28719	-635.75111	61.77427	639.14503	-753.78813	35.78802	694.41877	-759.77991	-32.90753	712.87709	-581.66255	94.69511	109.07939	-573.13833	23.97334	118.00633	-529.92315	63.53885	104.08658	-727.66045	-61.44535	381.78505	-853.11147	-104.06489	89.94711	-865.27233	-38.55349	109.71997	-896.75002	-80.02033	130.33421	-812.79193	-62.33431	74.40053	-617.04027	16.20610	949.72077	-518.52831	23.01042	429.56878	-778.13569	-115.72340	359.88649	-547.06151	79.36509	375.40140	-658.05933	-110.12993	673.76602	-618.32714	49.74482	132.91148	-728.31286	-184.25401	460.66356	-608.24883	150.40989	483.74649	-816.76406	-178.67591	241.11976	-563.86665	148.73093	268.17578	
